<?xml version="1.0" encoding="UTF-8" standalone="no"?>
<!-- Creator: fig2dev Version 3.2.8 -->
<!-- CreationDate: 2022-10-28 18:23:05 -->
<!-- Magnification: 1.05 -->
<svg	xmlns="http://www.w3.org/2000/svg"
	xmlns:xlink="http://www.w3.org/1999/xlink"
	width="1311pt" height="546pt"
	viewBox="1203 1253 20804 8664">
<g fill="#e50914">
<!-- Line -->
<polygon points=" 6930,2835 6939,2870 6946,2904 6951,2938 6955,2971 6958,3004 6959,3038 6960,3071
 6961,3104 6961,3138 6961,3171 6960,3205 6959,3238 6957,3272 6955,3306 6953,3339
 6950,3373 6947,3406 6943,3439 6938,3472 6931,3504 6924,3536 6915,3567 6905,3597
 6893,3626 6879,3654 6862,3682 6844,3708 6822,3733 6798,3756 6770,3778 6739,3798
 6704,3816 6666,3832 6623,3847 6576,3860 6525,3870 6491,3875 6455,3880 6416,3883
 6376,3886 6334,3888 6289,3888 6243,3888 6194,3886 6143,3883 6090,3879 6035,3875
 5978,3869 5919,3862 5858,3854 5795,3845 5730,3836 5664,3825 5596,3814 5526,3802
 5456,3789 5384,3775 5311,3761 5237,3747 5162,3732 5086,3717 5010,3701 4934,3686
 4857,3670 4780,3654 4703,3638 4626,3623 4550,3607 4474,3592 4398,3578 4324,3563
 4250,3550 4177,3537 4106,3524 4035,3513 3967,3502 3899,3492 3833,3483 3769,3475
 3707,3469 3647,3463 3589,3459 3533,3456 3479,3454 3427,3453 3377,3454 3330,3456
 3284,3460 3241,3465 3201,3471 3162,3479 3126,3488 3092,3498 3060,3510 3021,3528
 2985,3547 2952,3570 2923,3595 2897,3622 2873,3652 2852,3685 2834,3720 2819,3757
 2806,3797 2795,3839 2787,3884 2780,3930 2775,3978 2772,4028 2770,4079 2770,4132
 2771,4186 2773,4241 2775,4296 2779,4352 2784,4408 2789,4464 2794,4520 2800,4575
 2806,4630 2812,4684 2819,4737 2825,4788 2832,4838 2838,4886 2844,4933 2850,4977
 2857,5020 2863,5060 2868,5098 2874,5133 2880,5166 2887,5196 2893,5224 2900,5249
 2908,5272 2916,5292 2925,5310 2939,5331 2956,5348 2975,5360 2997,5367 3020,5370
 3046,5368 3074,5362 3104,5352 3136,5338 3170,5320 3205,5299 3241,5276 3278,5250
 3317,5223 3356,5194 3395,5165 3434,5136 3473,5107 3512,5080 3550,5054 3588,5030
 3625,5008 3660,4989 3695,4974 3727,4962 3759,4954 3789,4950 3817,4951 3844,4956
 3869,4965 3893,4978 3915,4995 3933,5012 3950,5032 3967,5055 3984,5081 4000,5109
 4016,5140 4032,5174 4048,5211 4063,5250 4079,5292 4095,5336 4111,5382 4127,5429
 4143,5479 4159,5529 4175,5581 4190,5634 4206,5687 4221,5741 4236,5795 4250,5848
 4263,5901 4276,5954 4289,6005 4300,6055 4311,6104 4320,6151 4328,6197 4335,6240
 4340,6281 4344,6320 4346,6356 4347,6390 4345,6422 4342,6451 4337,6478 4330,6503
 4320,6525 4307,6548 4290,6567 4271,6584 4248,6597 4222,6608 4193,6615 4160,6618
 4125,6619 4086,6616 4046,6611 4002,6604 3957,6594 3910,6582 3861,6569 3812,6555
 3761,6541 3710,6526 3660,6511 3609,6497 3560,6484 3511,6472 3464,6463 3419,6455
 3376,6451 3335,6450 3297,6451 3262,6457 3230,6467 3201,6481 3175,6499 3153,6521
 3134,6548 3118,6579 3105,6615 3098,6642 3092,6670 3088,6701 3086,6734 3085,6769
 3086,6806 3088,6845 3092,6887 3098,6931 3105,6976 3113,7024 3123,7074 3135,7126
 3148,7179 3162,7234 3177,7291 3194,7349 3211,7408 3229,7468 3248,7530 3267,7592
 3287,7655 3308,7718 3328,7782 3349,7846 3370,7910 3390,7974 3410,8037 3430,8100
 3449,8163 3467,8224 3485,8285 3502,8345 3517,8403 3532,8460 3545,8515 3557,8569
 3567,8621 3576,8671 3583,8720 3588,8766 3592,8810 3593,8852 3593,8893 3592,8931
 3588,8967 3582,9000 3575,9032 3566,9062 3555,9090 3541,9120 3524,9147 3505,9173
 3484,9197 3461,9220 3436,9242 3408,9262 3378,9282 3346,9301 3313,9320 3277,9338
 3240,9355 3201,9373 3161,9389 3119,9406 3076,9421 3031,9437 2986,9452 2941,9466
 2894,9480 2847,9494 2800,9506 2752,9518 2705,9529 2658,9538 2611,9547 2564,9554
 2518,9560 2473,9564 2429,9566 2385,9566 2343,9565 2302,9561 2262,9554 2223,9545
 2186,9533 2150,9518 2115,9500 2082,9479 2050,9454 2020,9425 1990,9392 1962,9356
 1935,9315 1916,9283 1898,9250 1880,9214 1863,9175 1846,9135 1829,9093 1813,9048
 1796,9001 1780,8952 1764,8902 1749,8849 1734,8794 1718,8738 1703,8679 1688,8619
 1674,8558 1659,8495 1644,8430 1630,8364 1616,8297 1601,8228 1587,8158 1573,8088
 1559,8016 1546,7943 1532,7870 1518,7796 1505,7721 1492,7646 1478,7570 1465,7494
 1452,7418 1440,7341 1427,7265 1415,7188 1403,7112 1391,7035 1379,6959 1367,6884
 1356,6808 1345,6733 1335,6659 1324,6585 1314,6511 1305,6439 1295,6367 1286,6295
 1278,6225 1270,6155 1262,6086 1255,6017 1249,5950 1243,5883 1237,5817 1232,5751
 1228,5687 1224,5623 1221,5559 1218,5496 1216,5434 1215,5372 1215,5310 1215,5246
 1216,5183 1218,5119 1221,5056 1223,4992 1227,4928 1230,4864 1234,4800 1238,4735
 1243,4670 1248,4605 1252,4540 1257,4474 1263,4408 1268,4341 1273,4274 1279,4207
 1284,4139 1290,4071 1295,4003 1301,3934 1307,3866 1313,3797 1319,3728 1325,3659
 1332,3590 1338,3521 1345,3452 1352,3383 1360,3315 1368,3246 1376,3178 1384,3111
 1393,3043 1402,2977 1412,2911 1423,2845 1434,2780 1446,2716 1458,2653 1471,2591
 1485,2530 1500,2470 1516,2411 1533,2353 1550,2296 1569,2241 1589,2187 1610,2135
 1633,2084 1656,2034 1681,1987 1708,1940 1735,1896 1765,1853 1796,1812 1828,1772
 1862,1735 1898,1699 1935,1665 1973,1634 2012,1605 2054,1577 2097,1551 2142,1526
 2188,1503 2237,1481 2288,1461 2340,1442 2394,1424 2450,1408 2508,1393 2567,1379
 2628,1366 2691,1354 2755,1343 2821,1333 2888,1324 2957,1316 3027,1308 3098,1302
 3170,1296 3243,1290 3317,1286 3392,1282 3467,1278 3543,1275 3620,1272 3697,1270
 3774,1268 3851,1267 3928,1266 4005,1265 4082,1265 4159,1265 4235,1265 4311,1265
 4386,1265 4461,1266 4534,1267 4607,1268 4679,1269 4749,1270 4818,1272 4887,1273
 4953,1275 5019,1277 5083,1279 5145,1282 5206,1284 5265,1287 5322,1291 5378,1294
 5432,1298 5485,1303 5535,1308 5584,1313 5632,1319 5677,1326 5721,1333 5764,1341
 5805,1350 5863,1365 5918,1382 5970,1401 6019,1422 6066,1445 6110,1471 6152,1498
 6192,1527 6230,1558 6266,1590 6300,1625 6332,1660 6363,1697 6392,1736 6420,1775
 6447,1816 6473,1857 6498,1900 6522,1942 6545,1986 6568,2029 6590,2073 6611,2117
 6632,2161 6653,2204 6673,2247 6693,2290 6712,2333 6731,2374 6750,2415 6769,2455
 6787,2494 6804,2533 6822,2570 6838,2606 6854,2642 6870,2676 6884,2710 6897,2742
 6910,2774 6921,2805"
	stroke="#000000" stroke-width="8px" stroke-linejoin="bevel"/>
<!-- Line -->
<polygon points=" 4680,5715 4678,5749 4676,5785 4675,5823 4674,5863 4674,5906 4674,5950 4675,5997
 4676,6046 4678,6098 4680,6151 4682,6207 4685,6265 4688,6326 4692,6388 4696,6452
 4700,6518 4705,6586 4709,6656 4714,6728 4720,6800 4725,6875 4731,6950 4737,7027
 4743,7104 4750,7183 4756,7262 4763,7342 4770,7422 4777,7503 4784,7583 4791,7664
 4799,7744 4806,7824 4814,7904 4821,7983 4829,8061 4837,8138 4844,8214 4852,8289
 4860,8362 4868,8434 4876,8505 4884,8574 4893,8641 4901,8706 4909,8768 4918,8829
 4926,8888 4935,8944 4943,8998 4952,9050 4961,9099 4970,9146 4980,9190 4989,9232
 4999,9271 5009,9308 5019,9343 5029,9375 5040,9405 5058,9448 5076,9486 5096,9518
 5116,9546 5138,9569 5161,9588 5185,9603 5210,9614 5236,9621 5263,9625 5291,9626
 5320,9624 5350,9619 5380,9612 5411,9604 5442,9593 5474,9580 5506,9567 5538,9552
 5570,9536 5601,9520 5632,9502 5663,9485 5693,9467 5722,9448 5751,9430 5778,9411
 5804,9393 5829,9374 5853,9355 5875,9336 5895,9316 5914,9296 5932,9275 5948,9253
 5962,9231 5974,9206 5985,9180 5993,9154 6001,9127 6006,9098 6010,9067 6013,9034
 6014,9000 6014,8964 6012,8926 6008,8887 6004,8846 5998,8804 5990,8761 5982,8717
 5972,8672 5962,8625 5950,8578 5939,8530 5926,8482 5913,8433 5900,8383 5887,8333
 5873,8283 5860,8233 5847,8183 5835,8133 5823,8083 5812,8033 5802,7983 5793,7934
 5785,7885 5778,7837 5773,7789 5769,7742 5766,7695 5766,7648 5766,7602 5769,7557
 5773,7512 5778,7467 5786,7423 5795,7379 5805,7335 5816,7295 5828,7255 5842,7214
 5857,7174 5874,7133 5892,7091 5912,7049 5934,7007 5957,6964 5982,6921 6008,6877
 6036,6833 6065,6789 6095,6744 6127,6698 6159,6652 6193,6606 6227,6560 6262,6514
 6298,6467 6333,6421 6369,6374 6405,6328 6441,6282 6477,6236 6513,6191 6547,6146
 6581,6101 6615,6058 6647,6015 6678,5973 6707,5931 6735,5891 6762,5852 6787,5814
 6810,5777 6832,5741 6851,5707 6868,5675 6883,5643 6897,5614 6908,5586 6916,5559
 6923,5534 6928,5511 6930,5490 6930,5462 6926,5438 6918,5417 6905,5399 6889,5383
 6868,5371 6844,5361 6817,5353 6786,5348 6753,5344 6717,5342 6679,5342 6639,5343
 6597,5345 6554,5348 6511,5351 6467,5356 6423,5361 6380,5366 6337,5371 6295,5377
 6254,5382 6214,5388 6177,5393 6141,5399 6106,5404 6074,5410 6044,5416 6015,5422
 5989,5429 5964,5436 5940,5445 5914,5456 5889,5470 5866,5485 5843,5503 5821,5523
 5800,5546 5779,5571 5760,5598 5740,5627 5722,5657 5703,5688 5685,5721 5668,5754
 5650,5787 5633,5821 5617,5853 5600,5885 5584,5915 5568,5943 5552,5970 5537,5994
 5522,6015 5508,6033 5494,6048 5480,6060 5468,6068 5456,6073 5445,6075 5434,6073
 5424,6066 5416,6054 5409,6038 5405,6017 5402,5991 5400,5962 5400,5929 5401,5894
 5403,5856 5406,5817 5408,5777 5411,5737 5413,5697 5415,5658 5415,5622 5414,5587
 5412,5556 5408,5528 5401,5504 5393,5483 5383,5467 5370,5454 5355,5445 5343,5440
 5330,5437 5316,5434 5301,5431 5284,5429 5266,5426 5246,5423 5225,5420 5203,5416
 5180,5412 5156,5407 5130,5402 5104,5397 5078,5391 5051,5386 5024,5382 4996,5377
 4969,5374 4942,5372 4916,5372 4890,5374 4865,5377 4841,5384 4818,5393 4797,5405
 4777,5421 4758,5441 4742,5465 4727,5494 4713,5528 4702,5566 4693,5610 4686,5660
"
	stroke="#000000" stroke-width="8px" stroke-linejoin="bevel"/>
<!-- Line -->
<polygon points=" 8055,7155 8068,7142 8079,7128 8090,7112 8101,7096 8112,7078 8122,7059 8133,7040
 8143,7019 8154,6998 8164,6977 8174,6955 8184,6933 8193,6910 8201,6888 8208,6865
 8215,6842 8219,6819 8222,6797 8223,6774 8222,6752 8218,6729 8212,6706 8202,6683
 8190,6660 8179,6642 8165,6624 8150,6605 8134,6585 8116,6563 8096,6541 8076,6517
 8053,6492 8030,6466 8006,6439 7981,6412 7955,6383 7929,6354 7902,6324 7874,6294
 7846,6265 7818,6236 7789,6207 7761,6180 7732,6154 7703,6129 7674,6106 7645,6086
 7616,6067 7587,6052 7558,6039 7529,6029 7500,6022 7470,6019 7441,6019 7411,6023
 7380,6030 7355,6038 7329,6049 7303,6062 7276,6077 7249,6094 7220,6113 7191,6134
 7160,6157 7129,6181 7097,6208 7065,6235 7031,6264 6997,6294 6963,6325 6928,6357
 6892,6391 6857,6425 6821,6459 6785,6494 6749,6530 6713,6566 6677,6602 6642,6639
 6607,6675 6573,6712 6540,6748 6508,6785 6476,6821 6446,6857 6417,6893 6389,6928
 6363,6964 6338,6999 6315,7034 6293,7069 6273,7104 6255,7139 6238,7174 6223,7209
 6210,7245 6198,7281 6188,7318 6180,7356 6173,7395 6167,7435 6162,7476 6158,7518
 6155,7561 6153,7605 6151,7651 6151,7697 6151,7744 6151,7792 6152,7841 6154,7890
 6156,7940 6159,7991 6162,8041 6165,8092 6169,8143 6174,8193 6178,8243 6184,8293
 6189,8342 6196,8390 6203,8437 6210,8482 6218,8527 6227,8570 6236,8611 6247,8650
 6258,8688 6270,8723 6283,8757 6298,8788 6313,8817 6330,8844 6348,8868 6368,8890
 6390,8910 6413,8927 6439,8943 6466,8955 6495,8966 6527,8975 6560,8981 6596,8986
 6633,8988 6672,8989 6713,8988 6756,8986 6801,8982 6846,8976 6894,8970 6942,8962
 6991,8954 7041,8944 7092,8934 7142,8924 7194,8913 7245,8901 7296,8890 7347,8878
 7397,8867 7446,8855 7495,8844 7542,8833 7588,8823 7633,8813 7676,8803 7718,8794
 7758,8785 7796,8777 7832,8769 7867,8762 7899,8755 7930,8749 7958,8742 7985,8736
 8010,8730 8055,8717 8094,8704 8127,8689 8154,8673 8177,8656 8195,8637 8209,8618
 8220,8598 8230,8578 8237,8558 8244,8538 8250,8518 8256,8499 8264,8482 8271,8465
 8281,8451 8291,8439 8302,8429 8313,8421 8325,8415 8337,8411 8348,8410 8358,8411
 8368,8413 8376,8417 8385,8422 8393,8428 8400,8435 8407,8442 8414,8451 8421,8460
 8428,8469 8434,8479 8440,8491 8446,8503 8451,8517 8456,8532 8460,8550 8463,8566
 8464,8584 8465,8604 8463,8627 8460,8651 8456,8677 8450,8704 8443,8733 8435,8763
 8426,8793 8418,8824 8410,8855 8403,8885 8397,8915 8394,8944 8393,8971 8394,8996
 8400,9019 8409,9040 8422,9059 8439,9076 8460,9090 8475,9098 8492,9105 8511,9113
 8532,9121 8555,9129 8580,9138 8607,9148 8636,9159 8667,9170 8699,9183 8734,9196
 8769,9211 8806,9226 8844,9241 8883,9257 8923,9272 8963,9287 9003,9302 9043,9316
 9082,9329 9121,9341 9160,9351 9197,9359 9232,9364 9267,9367 9299,9367 9329,9363
 9358,9356 9384,9345 9407,9329 9429,9309 9447,9285 9463,9255 9476,9220 9487,9180
 9495,9135 9499,9104 9502,9071 9504,9035 9505,8998 9505,8957 9504,8915 9503,8870
 9501,8822 9498,8772 9494,8719 9490,8664 9485,8607 9479,8548 9473,8486 9466,8422
 9458,8357 9450,8289 9442,8219 9433,8148 9424,8075 9414,8001 9404,7926 9393,7849
 9382,7772 9371,7694 9360,7615 9348,7535 9336,7456 9324,7376 9312,7296 9300,7216
 9287,7137 9275,7058 9262,6980 9250,6902 9237,6826 9224,6751 9211,6677 9199,6604
 9186,6533 9173,6464 9161,6396 9148,6331 9135,6267 9123,6206 9110,6147 9098,6090
 9085,6035 9073,5983 9060,5933 9047,5886 9035,5842 9022,5799 9009,5760 8996,5722
 8982,5688 8969,5655 8955,5625 8933,5583 8911,5546 8887,5514 8862,5486 8836,5463
 8809,5444 8780,5429 8751,5417 8719,5410 8687,5405 8654,5403 8620,5405 8584,5408
 8548,5414 8512,5422 8475,5432 8437,5443 8400,5455 8362,5469 8325,5483 8288,5498
 8252,5513 8216,5529 8181,5545 8147,5561 8115,5576 8084,5592 8055,5607 8027,5622
 8002,5637 7978,5652 7956,5666 7937,5681 7920,5695 7905,5710 7893,5726 7883,5742
 7875,5760 7869,5780 7867,5802 7866,5826 7869,5852 7874,5879 7882,5908 7892,5938
 7905,5970 7920,6004 7938,6038 7957,6074 7978,6111 8001,6150 8025,6188 8050,6228
 8076,6268 8102,6309 8130,6350 8157,6391 8184,6432 8211,6473 8237,6514 8262,6555
 8287,6595 8310,6634 8332,6673 8353,6711 8372,6749 8389,6785 8405,6821 8418,6856
 8430,6890 8440,6924 8448,6956 8455,6989 8460,7020 8464,7055 8467,7090 8468,7124
 8467,7158 8465,7193 8462,7227 8457,7262 8452,7296 8445,7331 8437,7366 8429,7402
 8420,7437 8410,7473 8400,7508 8389,7543 8378,7578 8366,7613 8355,7647 8343,7681
 8331,7714 8319,7746 8308,7777 8296,7808 8284,7836 8272,7864 8261,7890 8249,7915
 8238,7938 8226,7959 8214,7978 8202,7995 8190,8010 8173,8027 8154,8040 8135,8050
 8114,8057 8093,8061 8070,8062 8047,8061 8022,8059 7997,8054 7972,8048 7946,8041
 7920,8032 7894,8024 7868,8015 7843,8005 7818,7996 7793,7987 7770,7977 7747,7968
 7726,7959 7705,7950 7686,7941 7667,7931 7650,7920 7632,7907 7615,7892 7599,7876
 7583,7858 7568,7839 7553,7818 7538,7797 7523,7774 7509,7750 7495,7726 7481,7701
 7468,7677 7455,7652 7443,7628 7431,7605 7420,7582 7410,7561 7401,7540 7394,7521
 7388,7503 7383,7486 7380,7470 7379,7452 7380,7435 7384,7419 7389,7405 7396,7391
 7404,7377 7413,7365 7423,7352 7434,7341 7446,7329 7458,7318 7470,7306 7483,7295
 7496,7285 7511,7274 7526,7264 7542,7254 7560,7245 7576,7238 7593,7232 7613,7227
 7633,7223 7655,7219 7679,7217 7703,7215 7729,7214 7755,7213 7782,7213 7810,7213
 7837,7212 7864,7212 7890,7210 7916,7208 7940,7205 7963,7200 7985,7195 8005,7187
 8023,7178 8040,7167"
	stroke="#000000" stroke-width="8px" stroke-linejoin="bevel"/>
<!-- Line -->
<polygon points=" 9612,5852 9610,5886 9608,5922 9607,5960 9606,6000 9606,6043 9606,6087 9607,6134
 9608,6183 9610,6235 9612,6288 9614,6344 9617,6402 9620,6463 9624,6525 9628,6589
 9632,6655 9637,6723 9641,6793 9646,6865 9652,6937 9657,7012 9663,7087 9669,7164
 9675,7241 9682,7320 9688,7399 9695,7479 9702,7559 9709,7640 9716,7720 9723,7801
 9731,7881 9738,7961 9746,8041 9753,8120 9761,8198 9769,8275 9776,8351 9784,8426
 9792,8499 9800,8571 9808,8642 9816,8711 9825,8778 9833,8843 9841,8905 9850,8966
 9858,9025 9867,9081 9875,9135 9884,9187 9893,9236 9902,9283 9912,9327 9921,9369
 9931,9408 9941,9445 9951,9480 9961,9512 9972,9542 9990,9585 10008,9623 10028,9655
 10048,9683 10070,9706 10093,9725 10117,9740 10142,9751 10168,9758 10195,9762
 10223,9763 10252,9761 10282,9756 10312,9749 10343,9741 10374,9730 10406,9717
 10438,9704 10470,9689 10502,9673 10533,9657 10564,9639 10595,9622 10625,9604
 10654,9585 10683,9567 10710,9548 10736,9530 10761,9511 10785,9492 10807,9473
 10827,9453 10846,9433 10864,9412 10880,9390 10894,9368 10906,9343 10917,9317
 10925,9291 10933,9264 10938,9234 10942,9201 10945,9166 10945,9128 10945,9088
 10942,9045 10939,8999 10933,8951 10926,8900 10918,8848 10909,8792 10899,8736
 10887,8677 10875,8617 10862,8555 10848,8493 10834,8430 10820,8367 10806,8304
 10792,8241 10778,8178 10764,8117 10751,8057 10738,7998 10727,7941 10716,7886
 10707,7834 10699,7784 10692,7738 10687,7694 10684,7654 10682,7618 10682,7585
 10684,7557 10688,7532 10694,7512 10702,7495 10712,7483 10723,7476 10737,7472
 10751,7472 10766,7476 10783,7483 10802,7494 10822,7509 10844,7527 10867,7549
 10891,7574 10917,7602 10944,7634 10973,7670 11002,7708 11033,7749 11065,7792
 11098,7838 11132,7887 11167,7937 11202,7989 11238,8042 11274,8097 11311,8153
 11349,8209 11386,8266 11424,8323 11461,8380 11499,8436 11536,8492 11573,8547
 11610,8600 11646,8653 11682,8704 11717,8753 11752,8800 11786,8845 11819,8887
 11852,8927 11883,8965 11914,9000 11944,9032 11973,9062 12002,9088 12029,9112
 12056,9133 12082,9152 12107,9168 12132,9182 12163,9197 12193,9208 12223,9216
 12253,9222 12282,9226 12312,9227 12342,9227 12372,9225 12402,9221 12432,9215
 12463,9209 12493,9201 12524,9192 12555,9182 12586,9171 12617,9160 12647,9147
 12678,9133 12707,9119 12736,9104 12765,9087 12792,9070 12818,9051 12843,9031
 12867,9010 12889,8987 12909,8963 12928,8937 12944,8909 12958,8879 12969,8847
 12978,8812 12985,8774 12988,8733 12989,8690 12987,8642 12984,8609 12980,8575
 12974,8539 12967,8502 12959,8462 12950,8420 12939,8377 12928,8332 12915,8284
 12901,8235 12886,8184 12870,8132 12853,8077 12835,8021 12816,7963 12796,7904
 12776,7843 12754,7781 12732,7718 12709,7653 12686,7588 12662,7521 12638,7454
 12613,7386 12588,7318 12563,7249 12537,7180 12511,7111 12485,7042 12459,6973
 12433,6905 12406,6837 12380,6770 12354,6703 12328,6637 12303,6572 12277,6508
 12252,6446 12227,6385 12203,6325 12178,6267 12155,6210 12131,6156 12108,6103
 12086,6052 12063,6003 12042,5956 12020,5911 11999,5868 11979,5827 11959,5789
 11939,5752 11919,5718 11900,5686 11881,5655 11862,5627 11831,5585 11800,5547
 11769,5515 11739,5487 11708,5463 11677,5444 11647,5429 11616,5417 11585,5409
 11554,5405 11523,5403 11492,5403 11461,5406 11430,5411 11399,5417 11368,5425
 11337,5434 11307,5443 11276,5453 11246,5464 11216,5474 11186,5485 11157,5495
 11128,5505 11100,5514 11072,5523 11044,5531 11017,5539 10991,5546 10966,5553
 10941,5560 10917,5567 10894,5574 10872,5582 10846,5593 10821,5607 10798,5622
 10775,5640 10753,5660 10732,5683 10711,5708 10692,5735 10672,5764 10654,5794
 10635,5825 10617,5858 10600,5891 10582,5924 10565,5958 10549,5990 10532,6022
 10516,6052 10500,6080 10484,6107 10469,6131 10454,6152 10440,6170 10426,6185
 10412,6197 10400,6205 10388,6210 10377,6212 10366,6210 10356,6203 10348,6191
 10341,6175 10337,6154 10334,6128 10332,6099 10332,6066 10333,6031 10335,5993
 10338,5954 10340,5914 10343,5874 10345,5834 10347,5795 10347,5759 10346,5724
 10344,5693 10340,5665 10333,5641 10325,5620 10315,5604 10302,5591 10287,5582
 10275,5577 10262,5574 10248,5571 10233,5568 10216,5566 10198,5563 10178,5560
 10157,5557 10135,5553 10112,5549 10088,5544 10062,5539 10036,5534 10010,5528
 9983,5523 9956,5519 9928,5514 9901,5511 9874,5509 9848,5509 9822,5511 9797,5514
 9773,5521 9750,5530 9729,5542 9709,5558 9690,5578 9674,5602 9659,5631 9645,5665
 9634,5703 9625,5747 9618,5797"
	stroke="#000000" stroke-width="8px" stroke-linejoin="bevel"/>
<!-- Line -->
<polygon points=" 13500,9450 13527,9512 13555,9569 13583,9620 13613,9665 13643,9704 13675,9738
 13707,9767 13741,9791 13776,9811 13811,9825 13848,9836 13886,9842 13925,9845
 13965,9844 14006,9840 14047,9833 14089,9823 14132,9810 14176,9795 14219,9778
 14263,9759 14307,9738 14352,9716 14396,9693 14440,9668 14484,9643 14527,9618
 14570,9592 14612,9565 14654,9539 14694,9512 14734,9486 14772,9460 14809,9434
 14845,9408 14879,9383 14912,9358 14943,9333 14972,9309 15000,9284 15025,9260
 15049,9236 15071,9212 15091,9187 15109,9162 15124,9136 15138,9109 15150,9080
 15159,9051 15167,9020 15173,8986 15176,8951 15177,8913 15177,8873 15174,8831
 15169,8786 15163,8738 15154,8688 15143,8635 15131,8580 15116,8523 15100,8464
 15083,8403 15064,8340 15043,8275 15022,8209 14999,8141 14976,8072 14951,8002
 14926,7932 14901,7861 14875,7790 14849,7719 14823,7648 14797,7578 14771,7508
 14746,7440 14722,7373 14698,7307 14675,7243 14653,7181 14633,7122 14613,7064
 14596,7010 14579,6958 14564,6910 14551,6865 14540,6823 14531,6784 14523,6750
 14518,6719 14514,6692 14513,6669 14514,6650 14516,6635 14521,6625 14527,6618
 14535,6615 14544,6616 14555,6621 14568,6629 14582,6641 14598,6658 14616,6678
 14635,6702 14656,6729 14678,6761 14702,6796 14727,6835 14754,6878 14781,6923
 14811,6972 14841,7024 14873,7079 14905,7136 14939,7195 14973,7257 15008,7321
 15044,7386 15080,7453 15117,7521 15154,7590 15192,7659 15230,7729 15268,7799
 15306,7869 15344,7939 15382,8008 15419,8076 15456,8143 15493,8209 15530,8273
 15565,8335 15601,8395 15635,8453 15669,8509 15702,8563 15734,8613 15765,8661
 15796,8706 15825,8748 15854,8787 15881,8823 15908,8856 15934,8885 15959,8912
 15983,8936 16006,8957 16028,8975 16050,8990 16082,9009 16113,9022 16143,9030
 16172,9033 16200,9031 16227,9024 16253,9013 16279,8998 16304,8979 16329,8957
 16353,8931 16377,8903 16400,8872 16423,8840 16445,8805 16468,8769 16489,8731
 16511,8693 16532,8654 16553,8615 16573,8576 16593,8537 16612,8498 16631,8459
 16649,8421 16666,8383 16683,8346 16698,8309 16713,8273 16727,8237 16740,8201
 16751,8165 16761,8128 16770,8090 16776,8057 16781,8023 16786,7987 16789,7951
 16792,7913 16794,7874 16795,7833 16796,7792 16796,7749 16796,7705 16796,7660
 16795,7614 16794,7568 16792,7520 16790,7472 16788,7423 16785,7374 16783,7324
 16780,7274 16776,7224 16773,7174 16769,7124 16764,7075 16760,7026 16754,6977
 16749,6929 16742,6882 16736,6836 16728,6791 16720,6747 16712,6704 16702,6662
 16692,6622 16681,6583 16668,6546 16655,6510 16641,6475 16625,6442 16608,6410
 16590,6380 16569,6349 16547,6320 16522,6293 16495,6267 16466,6243 16434,6220
 16401,6199 16365,6180 16326,6162 16286,6145 16243,6130 16199,6115 16153,6102
 16106,6090 16057,6078 16008,6067 15958,6057 15908,6047 15857,6037 15807,6027
 15757,6017 15708,6007 15661,5996 15615,5985 15570,5973 15528,5961 15488,5947
 15450,5932 15416,5917 15384,5900 15355,5881 15330,5862 15308,5841 15290,5818
 15276,5794 15265,5769 15258,5743 15255,5715 15255,5689 15258,5662 15264,5634
 15274,5605 15287,5575 15302,5544 15322,5512 15344,5479 15369,5445 15398,5410
 15429,5375 15462,5339 15498,5301 15537,5264 15577,5226 15619,5187 15662,5148
 15706,5108 15752,5068 15798,5028 15844,4988 15891,4947 15937,4907 15983,4867
 16027,4827 16071,4788 16114,4748 16155,4709 16194,4671 16231,4633 16266,4595
 16298,4559 16328,4523 16356,4487 16380,4453 16402,4419 16420,4385 16436,4353
 16449,4321 16458,4290 16466,4260 16470,4230 16472,4198 16471,4166 16467,4134
 16460,4103 16451,4072 16439,4040 16424,4008 16406,3976 16386,3944 16364,3911
 16340,3878 16315,3845 16287,3812 16258,3778 16227,3744 16196,3711 16164,3677
 16130,3644 16097,3611 16063,3578 16028,3546 15994,3515 15960,3484 15926,3455
 15893,3427 15860,3400 15827,3375 15796,3351 15765,3329 15735,3310 15706,3292
 15678,3277 15651,3264 15625,3254 15599,3246 15574,3241 15549,3239 15525,3240
 15501,3244 15476,3251 15452,3262 15428,3277 15403,3296 15378,3318 15353,3345
 15328,3376 15302,3410 15276,3448 15250,3489 15224,3534 15197,3581 15171,3630
 15144,3682 15117,3735 15091,3789 15064,3844 15037,3899 15010,3954 14984,4008
 14958,4061 14932,4112 14907,4160 14882,4207 14857,4250 14834,4290 14810,4325
 14788,4357 14766,4384 14745,4406 14725,4423 14706,4434 14688,4440 14671,4441
 14654,4436 14639,4426 14625,4410 14615,4395 14606,4376 14597,4354 14589,4329
 14582,4300 14576,4268 14571,4233 14567,4194 14564,4152 14561,4106 14560,4058
 14559,4006 14559,3951 14560,3894 14562,3834 14564,3772 14567,3707 14570,3640
 14574,3572 14579,3502 14583,3431 14588,3359 14593,3286 14599,3212 14604,3138
 14609,3064 14614,2990 14619,2917 14623,2845 14627,2773 14630,2703 14632,2635
 14634,2568 14635,2503 14636,2440 14635,2379 14633,2321 14630,2266 14626,2213
 14620,2164 14614,2117 14606,2074 14596,2034 14585,1997 14573,1964 14559,1934
 14544,1907 14528,1883 14510,1863 14490,1845 14468,1830 14445,1817 14419,1807
 14392,1799 14363,1793 14332,1789 14299,1786 14264,1785 14227,1785 14188,1786
 14147,1788 14105,1791 14060,1795 14014,1800 13967,1805 13918,1811 13868,1818
 13817,1825 13765,1833 13712,1842 13659,1852 13605,1862 13551,1873 13496,1885
 13442,1898 13389,1912 13335,1928 13283,1944 13231,1962 13180,1982 13131,2003
 13082,2026 13036,2052 12991,2079 12948,2109 12907,2141 12868,2176 12831,2214
 12796,2255 12764,2299 12735,2346 12708,2397 12683,2452 12661,2511 12642,2574
 12626,2641 12612,2713 12600,2790 12594,2838 12589,2889 12585,2941 12582,2995
 12580,3051 12578,3110 12577,3170 12577,3233 12578,3298 12580,3365 12582,3434
 12585,3505 12589,3578 12593,3654 12599,3732 12604,3811 12611,3893 12618,3977
 12625,4063 12633,4150 12642,4240 12651,4331 12661,4424 12671,4519 12682,4615
 12693,4712 12705,4812 12717,4912 12729,5013 12742,5116 12755,5220 12768,5324
 12782,5430 12796,5536 12810,5643 12824,5750 12839,5857 12854,5965 12869,6073
 12884,6182 12899,6290 12915,6398 12930,6505 12946,6613 12962,6719 12977,6826
 12993,6931 13009,7036 13025,7139 13041,7242 13056,7343 13072,7444 13088,7543
 13104,7640 13119,7736 13135,7830 13151,7923 13166,8014 13182,8103 13197,8190
 13212,8275 13228,8358 13243,8438 13258,8517 13273,8593 13288,8667 13303,8739
 13318,8808 13333,8875 13348,8939 13363,9001 13378,9061 13393,9118 13408,9173
 13423,9225 13438,9275 13453,9322 13469,9367 13484,9410"
	stroke="#000000" stroke-width="8px" stroke-linejoin="bevel"/>
<!-- Line -->
<polygon points=" 17190,5994 17188,6028 17186,6064 17185,6102 17184,6142 17184,6185 17184,6229
 17185,6276 17186,6325 17188,6377 17190,6430 17192,6486 17195,6544 17198,6605
 17202,6667 17206,6731 17210,6797 17215,6865 17219,6935 17224,7007 17230,7079
 17235,7154 17241,7229 17247,7306 17253,7383 17260,7462 17266,7541 17273,7621
 17280,7701 17287,7782 17294,7862 17301,7943 17309,8023 17316,8103 17324,8183
 17331,8262 17339,8340 17347,8417 17354,8493 17362,8568 17370,8641 17378,8713
 17386,8784 17394,8853 17403,8920 17411,8985 17419,9047 17428,9108 17436,9167
 17445,9223 17453,9277 17462,9329 17471,9378 17480,9425 17490,9469 17499,9511
 17509,9550 17519,9587 17529,9622 17539,9654 17550,9684 17568,9727 17586,9765
 17606,9797 17626,9825 17648,9848 17671,9867 17695,9882 17720,9893 17746,9900
 17773,9904 17801,9905 17830,9903 17860,9898 17890,9891 17921,9883 17952,9872
 17984,9859 18016,9846 18048,9831 18080,9815 18111,9799 18142,9781 18173,9764
 18203,9746 18232,9727 18261,9709 18288,9690 18314,9672 18339,9653 18363,9634
 18385,9615 18405,9595 18424,9575 18442,9554 18458,9532 18472,9510 18484,9485
 18495,9459 18503,9433 18511,9406 18517,9377 18521,9345 18525,9312 18528,9277
 18529,9241 18529,9202 18529,9162 18527,9120 18525,9077 18521,9032 18517,8986
 18513,8939 18507,8890 18502,8841 18495,8791 18488,8740 18481,8689 18474,8637
 18466,8585 18458,8533 18450,8481 18442,8429 18434,8377 18426,8325 18418,8274
 18410,8224 18402,8174 18395,8125 18387,8077 18380,8030 18373,7984 18366,7938
 18359,7894 18353,7851 18346,7809 18340,7768 18334,7728 18328,7689 18321,7651
 18315,7614 18307,7571 18299,7529 18291,7488 18282,7448 18274,7408 18264,7369
 18254,7330 18244,7292 18234,7254 18223,7216 18212,7179 18201,7143 18190,7106
 18178,7070 18167,7034 18155,6998 18143,6962 18131,6927 18119,6892 18107,6857
 18095,6823 18084,6788 18072,6754 18061,6720 18050,6687 18039,6654 18029,6621
 18019,6589 18010,6558 18000,6526 17992,6496 17984,6466 17976,6437 17968,6408
 17961,6381 17955,6354 17946,6316 17938,6279 17932,6244 17927,6210 17923,6178
 17921,6146 17919,6115 17919,6084 17920,6054 17921,6025 17923,5996 17925,5967
 17926,5940 17928,5913 17928,5887 17928,5862 17926,5838 17923,5816 17919,5795
 17912,5776 17903,5759 17893,5745 17880,5733 17865,5724 17853,5719 17840,5716
 17826,5713 17811,5710 17794,5708 17776,5705 17756,5702 17735,5699 17713,5695
 17690,5691 17666,5686 17640,5681 17614,5676 17588,5670 17561,5665 17534,5661
 17506,5656 17479,5653 17452,5651 17426,5651 17400,5653 17375,5656 17351,5663
 17328,5672 17307,5684 17287,5700 17268,5720 17252,5744 17237,5773 17223,5807
 17212,5845 17203,5889 17196,5939"
	stroke="#000000" stroke-width="8px" stroke-linejoin="bevel"/>
<!-- Line -->
<polygon points=" 16695,5040 16712,5060 16731,5078 16752,5097 16774,5114 16798,5132 16824,5149
 16852,5166 16881,5183 16911,5200 16942,5216 16974,5233 17007,5249 17041,5265
 17075,5281 17109,5297 17143,5311 17177,5326 17210,5339 17243,5352 17275,5363
 17307,5373 17338,5382 17368,5390 17397,5396 17425,5400 17452,5402 17479,5402
 17505,5400 17531,5396 17556,5389 17581,5381 17607,5370 17633,5358 17659,5344
 17685,5329 17712,5313 17740,5296 17768,5277 17795,5258 17823,5237 17851,5217
 17879,5195 17906,5174 17933,5152 17959,5129 17984,5106 18008,5083 18030,5060
 18051,5037 18069,5013 18086,4989 18101,4965 18113,4940 18123,4914 18130,4888
 18135,4860 18137,4835 18136,4809 18134,4781 18130,4752 18124,4722 18117,4691
 18108,4659 18097,4625 18085,4590 18072,4554 18058,4517 18043,4479 18027,4441
 18010,4402 17993,4363 17975,4324 17957,4284 17939,4246 17921,4207 17902,4170
 17884,4133 17866,4097 17847,4063 17829,4029 17811,3998 17793,3968 17776,3939
 17758,3913 17740,3888 17722,3865 17704,3844 17685,3825 17661,3804 17636,3785
 17610,3768 17583,3754 17555,3741 17525,3730 17494,3720 17463,3711 17431,3704
 17398,3697 17364,3691 17330,3686 17296,3682 17262,3678 17228,3674 17195,3672
 17163,3670 17131,3668 17100,3667 17070,3667 17042,3668 17014,3669 16989,3672
 16964,3677 16941,3682 16920,3690 16898,3701 16878,3714 16859,3729 16841,3746
 16824,3766 16807,3787 16792,3810 16777,3834 16763,3859 16749,3886 16735,3913
 16722,3940 16710,3968 16697,3997 16686,4025 16674,4053 16663,4082 16652,4110
 16642,4137 16633,4165 16625,4192 16617,4220 16610,4247 16605,4275 16601,4301
 16598,4328 16596,4356 16595,4384 16594,4413 16594,4443 16593,4474 16593,4505
 16594,4537 16594,4570 16595,4602 16596,4635 16597,4668 16599,4701 16601,4734
 16604,4766 16608,4798 16612,4829 16618,4859 16624,4888 16632,4916 16641,4944
 16652,4970 16664,4994 16679,5018"
	stroke="#000000" stroke-width="8px" stroke-linejoin="bevel"/>
<!-- Line -->
<polygon points=" 19703,7381 19713,7400 19725,7419 19740,7436 19758,7453 19779,7470 19801,7485
 19827,7501 19854,7516 19882,7530 19913,7545 19944,7559 19977,7573 20011,7586
 20045,7600 20079,7612 20114,7625 20149,7636 20184,7648 20219,7658 20253,7667
 20287,7676 20320,7683 20353,7689 20385,7694 20417,7697 20449,7698 20481,7698
 20513,7696 20541,7692 20570,7687 20600,7681 20630,7674 20661,7666 20692,7657
 20725,7647 20758,7637 20792,7626 20827,7615 20862,7604 20898,7591 20934,7579
 20971,7566 21007,7553 21044,7539 21080,7525 21116,7510 21152,7495 21186,7479
 21220,7462 21253,7445 21285,7427 21316,7407 21345,7387 21373,7365 21399,7342
 21423,7317 21446,7291 21467,7263 21486,7233 21503,7201 21515,7174 21527,7145
 21537,7115 21547,7083 21557,7050 21566,7015 21575,6979 21584,6941 21592,6902
 21601,6862 21609,6820 21617,6777 21626,6733 21634,6688 21642,6643 21650,6596
 21658,6549 21665,6502 21673,6454 21679,6406 21686,6358 21691,6310 21696,6262
 21701,6215 21704,6168 21706,6121 21707,6076 21706,6031 21704,5987 21701,5944
 21695,5902 21688,5862 21679,5822 21668,5784 21654,5747 21638,5711 21620,5677
 21599,5644 21575,5612 21548,5581 21524,5556 21497,5532 21468,5507 21437,5484
 21404,5460 21369,5436 21332,5413 21292,5389 21250,5365 21206,5341 21161,5316
 21113,5291 21064,5266 21013,5241 20960,5216 20907,5190 20851,5164 20795,5138
 20737,5112 20679,5086 20620,5060 20561,5035 20501,5009 20441,4984 20380,4959
 20320,4935 20260,4912 20200,4889 20141,4867 20083,4846 20025,4827 19968,4808
 19913,4791 19858,4775 19805,4761 19753,4749 19702,4738 19653,4729 19606,4723
 19560,4718 19516,4716 19474,4716 19433,4719 19394,4724 19356,4732 19320,4742
 19286,4755 19253,4771 19223,4789 19193,4810 19165,4833 19137,4859 19110,4887
 19084,4918 19058,4951 19033,4987 19009,5025 18984,5065 18961,5107 18937,5151
 18914,5197 18891,5246 18868,5295 18845,5347 18823,5399 18801,5453 18779,5509
 18758,5565 18736,5622 18715,5681 18694,5739 18674,5799 18654,5859 18634,5919
 18615,5979 18596,6040 18578,6100 18561,6161 18544,6221 18528,6280 18513,6340
 18498,6398 18485,6457 18472,6514 18461,6571 18450,6628 18441,6683 18433,6738
 18427,6791 18422,6845 18418,6897 18416,6948 18416,6999 18418,7050 18421,7099
 18426,7148 18434,7197 18443,7246 18453,7291 18466,7336 18480,7381 18496,7427
 18514,7473 18533,7519 18554,7566 18577,7613 18602,7661 18628,7710 18656,7759
 18685,7809 18715,7860 18747,7911 18780,7963 18815,8016 18850,8068 18887,8122
 18924,8176 18963,8230 19002,8285 19042,8339 19083,8394 19124,8449 19165,8504
 19207,8559 19249,8614 19292,8668 19335,8722 19377,8775 19420,8828 19462,8880
 19505,8931 19547,8981 19589,9030 19630,9078 19671,9124 19712,9170 19752,9213
 19792,9256 19831,9296 19869,9335 19907,9371 19945,9406 19981,9439 20017,9470
 20053,9498 20088,9524 20122,9548 20156,9569 20190,9589 20223,9605 20255,9619
 20288,9631 20328,9642 20368,9649 20407,9652 20447,9652 20488,9648 20528,9640
 20569,9628 20611,9614 20653,9595 20695,9574 20738,9550 20782,9523 20825,9493
 20870,9461 20914,9426 20959,9390 21004,9352 21049,9312 21095,9271 21140,9229
 21185,9186 21230,9142 21275,9098 21319,9054 21363,9010 21406,8966 21449,8923
 21490,8880 21531,8838 21570,8797 21608,8758 21645,8719 21681,8682 21715,8646
 21747,8612 21778,8579 21807,8548 21834,8519 21859,8491 21882,8464 21903,8439
 21922,8416 21939,8393 21953,8371 21969,8342 21981,8314 21990,8287 21994,8261
 21995,8236 21993,8211 21988,8187 21979,8164 21969,8141 21956,8118 21941,8095
 21924,8073 21905,8052 21885,8030 21864,8009 21843,7989 21820,7968 21797,7948
 21773,7929 21750,7909 21726,7891 21702,7873 21678,7855 21654,7839 21631,7823
 21607,7808 21583,7794 21559,7781 21535,7769 21510,7758 21485,7749 21458,7741
 21432,7735 21404,7731 21374,7728 21344,7727 21312,7727 21279,7729 21244,7732
 21208,7737 21171,7743 21133,7751 21094,7759 21054,7769 21014,7779 20973,7791
 20931,7802 20889,7814 20847,7827 20805,7839 20763,7851 20720,7863 20679,7874
 20637,7885 20596,7895 20556,7904 20517,7912 20478,7918 20440,7924 20403,7928
 20366,7930 20331,7931 20297,7931 20263,7929 20230,7926 20198,7921 20165,7915
 20132,7907 20099,7899 20066,7889 20033,7879 20000,7868 19967,7856 19933,7844
 19899,7831 19865,7818 19830,7804 19796,7790 19761,7776 19726,7761 19692,7747
 19657,7731 19624,7715 19590,7699 19558,7682 19527,7665 19497,7647 19468,7628
 19441,7609 19415,7589 19392,7567 19371,7545 19352,7521 19336,7496 19322,7470
 19311,7442 19303,7412 19298,7381 19296,7354 19296,7327 19298,7297 19302,7266
 19308,7233 19315,7199 19324,7162 19334,7124 19346,7085 19360,7043 19374,7001
 19390,6956 19407,6911 19425,6864 19444,6817 19463,6768 19483,6719 19504,6669
 19525,6619 19547,6570 19569,6520 19591,6470 19613,6422 19636,6374 19658,6327
 19680,6281 19702,6236 19724,6193 19746,6152 19767,6113 19789,6076 19810,6041
 19830,6008 19851,5978 19871,5951 19892,5925 19912,5903 19932,5883 19952,5866
 19973,5851 19999,5836 20027,5825 20055,5818 20084,5814 20114,5814 20145,5817
 20178,5823 20211,5833 20246,5844 20281,5859 20318,5875 20355,5894 20392,5914
 20430,5935 20468,5958 20506,5981 20544,6005 20581,6029 20618,6053 20654,6076
 20689,6100 20723,6122 20755,6144 20786,6165 20816,6185 20843,6204 20868,6222
 20892,6239 20913,6256 20932,6271 20949,6286 20963,6301 20980,6323 20993,6345
 21001,6367 21004,6391 21004,6415 21000,6440 20993,6466 20984,6493 20972,6520
 20958,6547 20944,6574 20929,6601 20914,6627 20900,6652 20886,6677 20873,6699
 20862,6721 20852,6740 20844,6758 20838,6773 20832,6786 20828,6796 20823,6806
 20819,6812 20817,6814 20818,6813 20820,6808 20824,6800 20828,6791 20833,6781
 20837,6769 20840,6758 20840,6747 20838,6737 20831,6728 20820,6720 20804,6713
 20783,6706 20767,6702 20749,6697 20730,6691 20708,6685 20683,6678 20657,6670
 20630,6661 20600,6651 20570,6641 20538,6630 20505,6619 20472,6608 20438,6596
 20404,6585 20370,6575 20337,6566 20304,6557 20272,6550 20241,6545 20212,6541
 20183,6540 20156,6541 20131,6545 20107,6551 20084,6559 20063,6571 20044,6584
 20026,6600 20008,6618 19990,6639 19973,6663 19955,6688 19937,6716 19919,6746
 19901,6778 19883,6811 19865,6846 19847,6882 19829,6918 19811,6955 19794,6992
 19778,7029 19762,7065 19748,7101 19734,7136 19722,7169 19712,7201 19704,7232
 19698,7261 19693,7289 19692,7314 19693,7338 19696,7360"
	stroke="#000000" stroke-width="8px" stroke-linejoin="bevel"/>
</g>
</svg>
